<svg xmlns="http://www.w3.org/2000/svg" viewBox="0 0 90 90">
  <defs>
    <style>
      .cls-1, .cls-2, .cls-4 {
        fill: none;
        stroke: #DDD;
        stroke-width: 2.5px;
      }

      .cls-1, .cls-2 {
        stroke-linecap: round;
        stroke-linejoin: round;
      }

      .cls-2 {
        stroke-dasharray: 4.9 4.9;
      }

      .cls-3 {
        fill: #FFF;
      }

      .cls-4 {
        stroke-miterlimit: 10;
      }
    </style>
  </defs>
  <title>simplySite_allfeatures_icon</title>
  <path class="cls-1" d="M78.55,61h-7.7a5.45,5.45,0,0,0-5.45,5.45V50.2a3.32,3.32,0,0,0-2.86-3.36A3.19,3.19,0,0,0,59,50v21.4L53.1,65.51A3.19,3.19,0,0,0,48.59,70L60.33,81.76a6.35,6.35,0,0,0,5.07,2.55H77.62A6.38,6.38,0,0,0,84,77.92V66.45A5.45,5.45,0,0,0,78.55,61Z"/>
  <polyline class="cls-1" points="72.09 59.77 72.09 42.37 51 42.37 51 63.02 59.01 63.02"/>
  <line class="cls-1" x1="51" y1="53.91" x2="24.4" y2="53.91"/>
  <g>
    <polyline class="cls-1" points="37.62 60.27 37.62 63.46 34.42 63.46"/>
    <line class="cls-2" x1="29.52" y1="63.46" x2="22.17" y2="63.46"/>
    <polyline class="cls-1" points="19.72 63.46 16.53 63.46 16.53 60.27"/>
    <line class="cls-2" x1="16.53" y1="55.36" x2="16.53" y2="48.01"/>
    <polyline class="cls-1" points="16.53 45.56 16.53 42.37 19.72 42.37"/>
    <line class="cls-2" x1="24.62" y1="42.37" x2="31.97" y2="42.37"/>
    <polyline class="cls-1" points="34.42 42.37 37.62 42.37 37.62 45.56"/>
    <line class="cls-2" x1="37.62" y1="50.46" x2="37.62" y2="57.81"/>
  </g>
  <circle class="cls-3" cx="22.47" cy="27.54" r="2.59"/>
  <circle class="cls-3" cx="28.96" cy="27.54" r="2.59"/>
  <path class="cls-3" d="M18.38,28.55a2.6,2.6,0,1,1,.2-1,2.6,2.6,0,0,1-.2,1"/>
  <line class="cls-4" x1="8.89" y1="34.59" x2="80.18" y2="34.59"/>
  <path class="cls-1" d="M49.27,71.19H11.89a3,3,0,0,1-3-3V23a3,3,0,0,1,3-3H77.46a3,3,0,0,1,3,3V61.36"/>
</svg>
